<?xml version="1.0" encoding="UTF-8" standalone="no"?>
<svg width="98px" height="24px" viewBox="0 0 98 24" version="1.1" xmlns="http://www.w3.org/2000/svg" xmlns:xlink="http://www.w3.org/1999/xlink" xmlns:sketch="http://www.bohemiancoding.com/sketch/ns"><link xmlns=""/>
    <!-- Generator: Sketch 3.2.2 (9983) - http://www.bohemiancoding.com/sketch -->
    <title>Imported Layers</title>
    <desc>Created with Sketch.</desc>
    <defs/>
    <g id="Page-1" stroke="none" stroke-width="1" fill="none" fill-rule="evenodd" sketch:type="MSPage">
        <g id="Imported-Layers" sketch:type="MSLayerGroup" fill="#000000">
            <path d="M20.905,5.814 C21.707,6.214 22.405,6.714 22.905,7.514 C23.375,8.214 23.705,9.014 23.805,9.914 C23.886,10.414 23.905,11.214 23.905,12.195 L15.536,12.195 C15.583,13.395 15.936,14.195 16.736,14.62 C17.194,14.92 17.736,15.02 18.436,15.02 C19.121,15.02 19.677,14.845 20.105,14.493 C20.339,14.303 20.544,14.04 20.724,13.703 L23.791,13.703 C23.71,14.385 23.339,15.077 22.678,15.803 C21.649,16.92 20.208,17.48 18.355,17.48 C16.826,17.48 15.476,17.009 14.307,16.066 C13.138,15.124 12.554,13.59 12.554,11.465 C12.554,9.474 13.082,7.948 14.137,6.886 C15.192,5.824 16.562,5.294 18.246,5.294 C19.202,5.3 20.1,5.5 20.9,5.814 L20.905,5.814 L20.905,5.814 Z M16.41,8.4 C15.986,8.838 15.719,9.431 15.609,10.179 L20.785,10.179 C20.731,9.381 20.464,8.776 19.984,8.363 C19.505,7.949 18.911,7.743 18.203,7.743 C17.432,7.8 16.8,8 16.4,8.411 L16.41,8.4 L16.41,8.4 Z" id="Fill-1" sketch:type="MSShapeGroup"/>
            <path d="M23.703,7.828 L23.703,5.688 L25.305,5.688 L25.305,2.482 L28.278,2.482 L28.278,5.687 L30.144,5.687 L30.144,7.827 L28.278,7.827 L28.278,13.9 C28.278,14.4 28.378,14.7 28.478,14.8 C28.598,14.9 28.978,15 29.578,14.974 C29.67,14.974 29.766,14.972 29.868,14.969 C29.97,14.965 30.07,14.96 30.168,14.953 L30.168,17.198 L28.744,17.298 C27.325,17.347 26.354,17.101 25.835,16.56 C25.497,16.215 25.329,15.685 25.329,14.968 L25.329,7.829 L23.703,7.828" id="Fill-2" sketch:type="MSShapeGroup"/>
            <path d="M36.382,10.084 C36.941,10.013 37.342,9.926 37.582,9.82 C38.013,9.637 38.23,9.353 38.23,8.967 C38.23,8.495 38.065,8.171 37.733,7.992 C37.402,7.813 36.916,7.723 36.274,7.723 C35.554,7.723 35.045,7.899 34.746,8.223 C34.532,8.483 34.39,8.835 34.318,9.277 L31.418,9.277 C31.481,8.273 31.764,7.447 32.265,6.799 C33.063,5.787 34.432,5.281 36.373,5.281 C37.637,5.281 38.773,5.481 39.773,6.03 C40.755,6.53 41.273,7.43 41.273,8.855 L41.273,14.126 L41.273,15.426 C41.294,15.826 41.373,16.126 41.473,16.226 C41.571,16.326 41.673,16.526 41.873,16.574 L41.873,17.015 L38.606,17.015 C38.514,16.782 38.451,16.564 38.416,16.361 C38.381,16.157 38.353,15.925 38.332,15.665 C37.915,16.116 37.434,16.497 36.89,16.814 C36.239,17.187 35.505,17.373 34.684,17.414 C33.638,17.414 32.773,17.116 32.091,16.523 C31.409,15.93 31.068,15.087 31.068,13.999 C31.068,12.586 31.617,11.563 32.714,10.931 C33.316,10.587 34.201,10.34 35.369,10.193 L36.382,10.084 L36.382,10.084 Z M38.218,11.486 C38.025,11.605 37.832,11.701 37.635,11.786 C37.44,11.859 37.171,11.929 36.828,11.992 L36.144,12.092 C35.503,12.205 35.042,12.341 34.762,12.503 C34.29,12.777 34.052,13.203 34.052,13.803 C34.052,14.303 34.152,14.703 34.452,14.915 C34.741,15.115 35.052,15.215 35.552,15.215 C36.208,15.215 36.813,15.025 37.366,14.645 C37.92,14.265 38.207,13.573 38.229,12.568 L38.229,11.418 C38.229,11.5 38.2,11.5 38.2,11.486 L38.218,11.486 L38.218,11.486 Z" id="Fill-3" sketch:type="MSShapeGroup"/>
            <path d="M52.893,6.963 C53.753,8.063 54.193,9.463 54.193,11.18 C54.193,12.965 53.769,14.445 52.921,15.58 C52.072,16.754 50.889,17.341 49.372,17.341 C48.418,17.341 47.652,17.151 47.073,16.771 C46.726,16.546 46.352,16.152 45.949,15.591 L45.949,17.035 L42.987,17.035 L42.987,1.555 L45.991,1.555 L45.991,7.08 C46.373,6.545 46.794,6.138 47.255,5.858 C47.799,5.506 48.492,5.331 49.335,5.331 C50.844,5.3 52,5.9 52.9,6.963 L52.893,6.963 L52.893,6.963 Z M50.382,13.963 C50.814,13.338 51.03,12.515 51.03,11.496 C51.03,10.681 50.923,10.006 50.712,9.472 C50.307,8.46 49.563,7.954 48.479,7.954 C47.381,7.954 46.626,8.449 46.215,9.441 C46.002,9.968 45.896,10.65 45.896,11.487 C45.896,12.487 46.096,13.287 46.596,13.887 C47.035,14.487 47.696,14.887 48.596,14.887 C49.344,14.9 49.9,14.6 50.4,13.963 L50.382,13.963 L50.382,13.963 Z" id="Fill-4" sketch:type="MSShapeGroup"/>
            <path d="M61.876,5.313 C61.914,5.313 61.976,5.313 62.176,5.33 L62.176,8.407 C61.986,8.386 61.818,8.372 61.67,8.365 C61.523,8.358 61.403,8.354 61.311,8.354 C60.102,8.354 59.29,8.748 58.876,9.534 C58.644,9.977 58.528,10.658 58.528,11.58 L58.528,17.073 L55.46,17.073 L55.46,5.583 L58.328,5.583 L58.328,7.586 C58.792,6.82 59.196,6.296 59.54,6.015 C60.103,5.543 60.833,5.308 61.733,5.308 C61.79,5.3 61.8,5.3 61.9,5.313 L61.876,5.313" id="Fill-5" sketch:type="MSShapeGroup"/>
            <path d="M68.091,10.084 C68.65,10.013 69.051,9.926 69.291,9.82 C69.722,9.637 69.938,9.353 69.938,8.967 C69.938,8.495 69.773,8.171 69.442,7.992 C69.11,7.813 68.624,7.723 67.983,7.723 C67.263,7.723 66.754,7.899 66.455,8.223 C66.241,8.483 66.099,8.835 66.027,9.277 L63.127,9.277 C63.191,8.273 63.473,7.447 63.974,6.799 C64.772,5.787 66.141,5.281 68.083,5.281 C69.346,5.281 70.483,5.481 71.483,6.03 C72.464,6.53 72.983,7.43 72.983,8.855 L72.983,14.126 L72.983,15.426 C73.004,15.826 73.083,16.126 73.183,16.226 C73.282,16.326 73.383,16.526 73.583,16.574 L73.583,17.015 L70.318,17.015 C70.226,16.782 70.163,16.564 70.128,16.361 C70.093,16.157 70.065,15.925 70.044,15.665 C69.626,16.116 69.147,16.497 68.602,16.814 C67.952,17.187 67.217,17.373 66.396,17.414 C65.349,17.414 64.485,17.116 63.803,16.523 C63.121,15.93 62.779,15.087 62.779,13.999 C62.779,12.586 63.328,11.563 64.426,10.931 C65.027,10.587 65.913,10.34 67.08,10.193 L68.091,10.084 L68.091,10.084 Z M69.927,11.486 C69.735,11.605 69.541,11.701 69.346,11.786 C69.15,11.859 68.881,11.929 68.538,11.992 L67.854,12.092 C67.213,12.205 66.752,12.341 66.472,12.503 C65.999,12.777 65.762,13.203 65.762,13.803 C65.762,14.303 65.862,14.703 66.162,14.915 C66.45,15.115 66.762,15.215 67.262,15.215 C67.918,15.215 68.523,15.025 69.075,14.645 C69.63,14.265 69.916,13.573 69.937,12.568 L69.927,11.486 L69.927,11.486 Z" id="Fill-6" sketch:type="MSShapeGroup"/>
            <path d="M83.993,6.241 C84.746,6.841 85.093,7.941 85.093,9.335 L85.093,17.074 L82.016,17.074 L82.016,10.084 C82.016,9.479 81.935,9.016 81.774,8.693 C81.481,8.102 80.924,7.807 80.1,7.807 C79.088,7.807 78.395,8.239 78.018,9.104 C77.823,9.561 77.725,10.143 77.725,10.854 L77.725,17.074 L74.72,17.074 L74.72,5.604 L77.63,5.604 L77.63,7.28 C78.015,6.689 78.379,6.265 78.722,6.004 C79.336,5.54 80.118,5.307 81.062,5.307 C82.273,5.3 83.2,5.6 84,6.241 L83.993,6.241" id="Fill-7" sketch:type="MSShapeGroup"/>
            <path d="M93.635,5.767 C94.176,6.067 94.635,6.467 94.935,7.037 L94.935,1.555 L98,1.555 L98,17.074 L95.08,17.074 L95.08,15.482 C94.651,16.164 94.163,16.66 93.614,16.969 C93.065,17.278 92.384,17.433 91.568,17.433 C90.226,17.433 89.095,16.89 88.177,15.804 C87.26,14.718 86.802,13.324 86.802,11.624 C86.802,9.663 87.253,8.12 88.156,6.995 C89.059,5.871 90.266,5.308 91.778,5.308 C92.476,5.3 93.1,5.5 93.6,5.767 L93.635,5.767 L93.635,5.767 Z M94.373,13.953 C94.816,13.32 95.037,12.502 95.037,11.496 C95.037,10.091 94.683,9.085 93.972,8.481 C93.535,8.115 93.03,7.933 92.454,7.933 C91.575,7.933 90.93,8.265 90.518,8.929 C90.107,9.593 89.902,10.417 89.902,11.429 C89.902,12.529 90.102,13.329 90.502,13.974 C90.92,14.574 91.602,14.974 92.402,14.929 C93.285,14.9 93.9,14.6 94.4,13.953 L94.373,13.953 L94.373,13.953 Z" id="Fill-8" sketch:type="MSShapeGroup"/>
            <path d="M0,5.362 C0,3.755 0.47,2.471 1.41,1.509 C2.249,0.589 3.476,0.091 5.09,0.011 C5.223,0 5.4,0 5.5,0 C6.943,0 8.2,0.3 9.2,0.984 C10.217,1.684 10.7,2.784 10.8,4.384 C10.8,5.291 10.565,6.068 10.095,6.712 C9.591,7.358 8.875,7.784 7.947,8.012 L7.947,8.061 C9.138,8.161 10.047,8.661 10.747,9.461 C11.425,10.261 11.747,11.361 11.747,12.625 C11.736,14.113 11.309,15.293 10.468,16.125 C9.616,17.032 8.44,17.712 6.942,17.725 C6.85,17.725 6.738,17.722 6.609,17.717 C5.746,17.679 4.159,17.5 3.416,16.966 L3.346,16.966 L1.547,23.74 L0,23.74 L0,5.362 L0,5.362 Z M5.733,7 C5.733,7 6.675,6.803 7.036,6.409 C7.386,6.015 7.561,5.491 7.561,4.834 C7.561,4.178 7.381,3.648 7.02,3.243 C6.659,2.8 6.2,2.6 5.5,2.639 C5.363,2.641 5.232,2.649 5.107,2.664 C3.886,2.814 3.301,3.654 3.352,5.181 L3.352,11.15 C3.374,13.55 4.252,14.75 6.052,14.741 C6.155,14.741 6.255,14.736 6.351,14.727 C6.971,14.662 7.455,14.394 7.806,13.921 C8.21,13.428 8.412,12.828 8.412,12.117 C8.39,10.378 7.498,9.494 5.739,9.461 L5.733,6.986 C5.733,7 5.7,7 5.7,7 L5.733,7 L5.733,7 Z" id="Fill-9" sketch:type="MSShapeGroup"/>
        </g>
    </g>
</svg>